<svg width="14" height="14" viewBox="0 0 14 14" fill="none" xmlns="http://www.w3.org/2000/svg">
<path d="M2.44643 3.66977C1.65151 4.69299 1.25747 5.97121 1.33831 7.2644C1.41915 8.55759 1.96931 9.77679 2.88548 10.693C3.80165 11.6093 5.0208 12.1596 6.31398 12.2405C7.60716 12.3215 8.88542 11.9275 9.90871 11.1327L2.44643 3.66977ZM3.38645 2.72976L10.8494 10.1927C11.6448 9.16947 12.0393 7.891 11.9586 6.59747C11.8779 5.30395 11.3276 4.0844 10.4112 3.16796C9.49475 2.25152 8.2752 1.70127 6.98167 1.62058C5.68815 1.53989 4.40967 1.93431 3.38645 2.72976ZM0 6.93124C0 3.25959 2.97627 0.283325 6.64791 0.283325C10.3196 0.283325 13.2958 3.25959 13.2958 6.93124C13.2958 10.6029 10.3196 13.5791 6.64791 13.5791C2.97627 13.5791 0 10.6029 0 6.93124Z" fill="#0D0D0D"/>
</svg>
