<svg width="10" height="9" viewBox="0 0 10 9" fill="none" xmlns="http://www.w3.org/2000/svg">
<path d="M9.5802 0.729066C9.68772 0.824739 9.75285 0.959179 9.7613 1.10285C9.76976 1.24652 9.72083 1.38767 9.62527 1.49529L3.83328 8.01168C3.78233 8.06902 3.71982 8.11491 3.64985 8.14633C3.57989 8.17775 3.50406 8.194 3.42736 8.194C3.35067 8.194 3.27484 8.17775 3.20487 8.14633C3.13491 8.11491 3.07239 8.06902 3.02145 8.01168L0.12545 4.75349C0.0353711 4.64513 -0.00906103 4.506 0.00154006 4.36549C0.0121412 4.22498 0.0769452 4.09409 0.182263 4.00047C0.28758 3.90686 0.425163 3.85785 0.565948 3.86379C0.706732 3.86974 0.839693 3.93018 0.936742 4.03234L3.42709 6.83385L8.81398 0.773595C8.90973 0.666159 9.04421 0.601123 9.18788 0.592773C9.33155 0.584424 9.47265 0.633445 9.5802 0.729066Z" fill="#3F8D32"/>
</svg>
