<svg width="18" height="11" viewBox="0 0 18 11" fill="none" xmlns="http://www.w3.org/2000/svg">
<path d="M0.376115 0.972894C0.617015 0.738908 0.9437 0.607462 1.28433 0.607462C1.62496 0.607462 1.95165 0.738908 2.19255 0.972894L8.99197 7.57917L15.7914 0.972894C15.9099 0.853686 16.0516 0.758601 16.2084 0.693189C16.3651 0.627776 16.5337 0.593345 16.7042 0.591905C16.8748 0.590465 17.044 0.622045 17.2018 0.684802C17.3597 0.747558 17.5031 0.840235 17.6237 0.957424C17.7444 1.07461 17.8397 1.21397 17.9043 1.36736C17.9689 1.52074 18.0014 1.6851 18 1.85082C17.9985 2.01654 17.963 2.18032 17.8957 2.3326C17.8284 2.48487 17.7305 2.62259 17.6078 2.73773L9.90019 10.2264C9.65929 10.4604 9.3326 10.5919 8.99197 10.5919C8.65134 10.5919 8.32465 10.4604 8.08375 10.2264L0.376115 2.73773C0.135289 2.50367 0 2.18627 0 1.85531C0 1.52436 0.135289 1.20695 0.376115 0.972894Z" fill="#0D0D0D"/>
</svg>
