<svg width="15" height="15" viewBox="0 0 15 15" fill="none" xmlns="http://www.w3.org/2000/svg">
<path d="M7.5 0C3.36 0 0 3.345 0 7.5C0 11.64 3.36 15 7.5 15C11.655 15 15 11.64 15 7.5C15 3.345 11.655 0 7.5 0ZM10.575 6.82498L10.02 7.36501L6.76501 10.635C6.61501 10.77 6.32998 10.92 6.11998 10.95L4.65001 11.16C4.12501 11.235 3.74998 10.86 3.82498 10.335L4.035 8.86501C4.065 8.65501 4.19999 8.37002 4.34999 8.22002L7.61998 4.965L8.16 4.41C8.52 4.05 8.92502 3.81001 9.34502 3.81001C9.70502 3.81001 10.11 3.975 10.56 4.41C11.55 5.4 11.235 6.16498 10.575 6.82498Z" fill="#0B6EFE"/>
</svg>
