<svg width="200" height="200" viewBox="0 0 96 109" fill="none" xmlns="http://www.w3.org/2000/svg">
<path d="M1.464 91V71.56H5.016V88.552H9.72V91H1.464ZM11.4456 91V77.128H14.7096V91H11.4456ZM11.4456 74.92V72.208H14.7096V74.92H11.4456ZM22.9427 95.56V89.968C22.5747 90.352 22.1827 90.656 21.7667 90.88C21.3507 91.104 20.9027 91.216 20.4227 91.216C19.3187 91.216 18.4867 90.824 17.9267 90.04C17.3667 89.256 17.0867 88 17.0867 86.272V82.024C17.0867 81.064 17.1907 80.2 17.3987 79.432C17.6067 78.664 17.9507 78.056 18.4307 77.608C18.9267 77.144 19.5827 76.912 20.3987 76.912C20.8947 76.912 21.3507 77.016 21.7667 77.224C22.1987 77.432 22.5907 77.704 22.9427 78.04V77.128H26.2067V95.56H22.9427ZM21.6467 88.96C21.8227 88.96 22.0227 88.92 22.2467 88.84C22.4867 88.76 22.7187 88.648 22.9427 88.504V79.624C22.7507 79.48 22.5427 79.368 22.3187 79.288C22.0947 79.192 21.8627 79.144 21.6227 79.144C21.1427 79.144 20.8067 79.36 20.6147 79.792C20.4387 80.208 20.3507 80.72 20.3507 81.328V86.512C20.3507 86.976 20.3827 87.392 20.4467 87.76C20.5267 88.128 20.6547 88.424 20.8307 88.648C21.0227 88.856 21.2947 88.96 21.6467 88.96ZM30.9019 91.216C30.3579 91.216 29.9099 91.08 29.5579 90.808C29.2059 90.52 28.9499 90.144 28.7899 89.68C28.6299 89.2 28.5499 88.696 28.5499 88.168V77.128H31.8139V87.568C31.8139 87.984 31.8779 88.312 32.0059 88.552C32.1499 88.776 32.4059 88.888 32.7739 88.888C33.0139 88.888 33.2539 88.824 33.4939 88.696C33.7499 88.568 33.9979 88.416 34.2379 88.24V77.128H37.5019V91H34.2379V89.68C33.7739 90.128 33.2619 90.496 32.7019 90.784C32.1419 91.072 31.5419 91.216 30.9019 91.216ZM40.1096 91V77.128H43.3736V91H40.1096ZM40.1096 74.92V72.208H43.3736V74.92H40.1096Z" fill="#0B6EFE"/>
<path d="M51.4148 91.264C49.9908 91.264 48.8708 90.984 48.0548 90.424C47.2548 89.864 46.6948 89.104 46.3748 88.144C46.0548 87.168 45.8948 86.048 45.8948 84.784V77.848C45.8948 76.52 46.0548 75.368 46.3748 74.392C46.6948 73.416 47.2548 72.664 48.0548 72.136C48.8708 71.608 49.9908 71.344 51.4148 71.344C52.7588 71.344 53.8068 71.576 54.5588 72.04C55.3268 72.488 55.8708 73.136 56.1908 73.984C56.5108 74.832 56.6708 75.816 56.6708 76.936V78.568H53.2628V76.888C53.2628 76.344 53.2308 75.848 53.1668 75.4C53.1188 74.952 52.9668 74.6 52.7108 74.344C52.4708 74.072 52.0468 73.936 51.4388 73.936C50.8308 73.936 50.3828 74.08 50.0948 74.368C49.8228 74.64 49.6468 75.016 49.5668 75.496C49.4868 75.96 49.4468 76.488 49.4468 77.08V85.528C49.4468 86.232 49.5028 86.816 49.6148 87.28C49.7268 87.728 49.9268 88.072 50.2148 88.312C50.5188 88.536 50.9268 88.648 51.4388 88.648C52.0308 88.648 52.4468 88.512 52.6868 88.24C52.9428 87.952 53.1028 87.576 53.1668 87.112C53.2308 86.648 53.2628 86.128 53.2628 85.552V83.8H56.6708V85.36C56.6708 86.512 56.5188 87.536 56.2148 88.432C55.9108 89.312 55.3748 90.008 54.6068 90.52C53.8548 91.016 52.7908 91.264 51.4148 91.264ZM59.0237 94.768V92.416C59.5837 92.416 60.0397 92.384 60.3917 92.32C60.7437 92.256 60.9997 92.144 61.1597 91.984C61.3197 91.824 61.3997 91.6 61.3997 91.312C61.3997 91.104 61.3437 90.776 61.2317 90.328C61.1357 89.88 61.0237 89.392 60.8957 88.864L57.8477 77.128H61.0157L62.8157 86.272L64.3757 77.128H67.5197L64.2797 91.552C64.1037 92.368 63.8077 93.008 63.3917 93.472C62.9757 93.936 62.4557 94.264 61.8317 94.456C61.2077 94.664 60.4797 94.768 59.6477 94.768H59.0237ZM73.2053 91.216C72.1333 91.216 71.2693 91.016 70.6133 90.616C69.9733 90.2 69.5013 89.616 69.1973 88.864C68.9093 88.096 68.7653 87.192 68.7653 86.152V81.976C68.7653 80.904 68.9093 79.992 69.1973 79.24C69.5013 78.488 69.9813 77.912 70.6373 77.512C71.2933 77.112 72.1493 76.912 73.2053 76.912C74.1973 76.912 75.0053 77.072 75.6293 77.392C76.2693 77.696 76.7333 78.168 77.0213 78.808C77.3093 79.432 77.4533 80.224 77.4533 81.184V82.336H74.3813V81.112C74.3813 80.632 74.3413 80.256 74.2613 79.984C74.1973 79.696 74.0773 79.496 73.9013 79.384C73.7253 79.256 73.4933 79.192 73.2053 79.192C72.9173 79.192 72.6853 79.272 72.5093 79.432C72.3333 79.576 72.2053 79.816 72.1253 80.152C72.0613 80.488 72.0293 80.952 72.0293 81.544V86.632C72.0293 87.528 72.1253 88.136 72.3173 88.456C72.5093 88.76 72.8133 88.912 73.2293 88.912C73.5493 88.912 73.7893 88.84 73.9492 88.696C74.1253 88.552 74.2373 88.344 74.2853 88.072C74.3493 87.784 74.3813 87.44 74.3813 87.04V85.552H77.4533V86.872C77.4533 87.8 77.3013 88.592 76.9973 89.248C76.7093 89.904 76.2453 90.4 75.6053 90.736C74.9813 91.056 74.1813 91.216 73.2053 91.216ZM79.8156 91V71.56H83.0556V91H79.8156ZM89.8464 91.216C88.8064 91.216 87.9584 91.024 87.3024 90.64C86.6464 90.24 86.1584 89.664 85.8384 88.912C85.5344 88.144 85.3824 87.224 85.3824 86.152V81.976C85.3824 80.872 85.5344 79.944 85.8384 79.192C86.1584 78.44 86.6464 77.872 87.3024 77.488C87.9744 77.104 88.8224 76.912 89.8464 76.912C90.9504 76.912 91.8064 77.12 92.4144 77.536C93.0384 77.952 93.4784 78.56 93.7344 79.36C94.0064 80.144 94.1424 81.104 94.1424 82.24V84.208H88.6224V86.944C88.6224 87.392 88.6624 87.76 88.7424 88.048C88.8384 88.336 88.9824 88.544 89.1744 88.672C89.3664 88.8 89.5984 88.864 89.8704 88.864C90.1584 88.864 90.3904 88.8 90.5664 88.672C90.7424 88.528 90.8704 88.328 90.9504 88.072C91.0304 87.8 91.0704 87.464 91.0704 87.064V85.912H94.1184V86.848C94.1184 88.256 93.7664 89.336 93.0624 90.088C92.3584 90.84 91.2864 91.216 89.8464 91.216ZM88.6224 82.6H91.0704V81.28C91.0704 80.8 91.0304 80.416 90.9504 80.128C90.8704 79.824 90.7424 79.608 90.5664 79.48C90.3904 79.336 90.1424 79.264 89.8224 79.264C89.5344 79.264 89.3024 79.336 89.1264 79.48C88.9504 79.624 88.8224 79.864 88.7424 80.2C88.6624 80.536 88.6224 81.016 88.6224 81.64V82.6Z" fill="#4C6787"/>
<path d="M47.0075 50.2222L49.8223 60.1185L29.4963 59.4963C25.2297 59.4963 19.3037 56.5333 21.4371 52.6518L26.4149 48.8889L47.0075 50.2222Z" fill="#4C6787"/>
<path d="M32.4593 22.9333L41.6741 38.9037L31.6 33.8667L28.1333 50.8148C27.6 51.7037 27.837 58.1037 27.4815 59.4963C25.763 58.2815 29.8815 60.8296 22.6815 57.3629C19.0963 55.3185 18.8 53.1555 18.2074 50.8444C17.8222 49.3926 17.1407 47.2889 17.763 42.2222C17.9407 39.8815 18.2963 37.6296 18.6519 37.0074L21.437 27.3481L14 23.0815L32.4593 22.9333Z" fill="#0B6EFE"/>
<path d="M59.748 49.6889C59.8666 52.5926 60.9036 55.3185 62.6221 57.2741C64.3406 59.2296 66.5925 60.237 68.874 60.0889C71.1555 60.237 73.4073 59.2296 75.1258 57.2741C76.8443 55.3185 77.8518 52.5926 77.9999 49.6889C77.9999 41.6 68.874 30.0444 68.874 30.0444C68.874 30.0444 59.748 41.6 59.748 49.6889Z" fill="#0B6EFE"/>
<path d="M65.3481 31.8518L51.4518 28.7704L56.6074 25.8074L50.2074 14.7259C49.8518 14.1037 48.4592 11.7926 47.7185 11.0518L55.5111 1.83704C56.8741 1.83704 61.9407 13.6296 62.4148 14.4889L65.5555 20.5037L70.7111 17.5407L65.3481 31.8518Z" fill="#4C6787"/>
<path d="M40.8742 21.2148L30.2964 16.4148L43.2445 1.77778C45.1408 -0.503704 54.6223 -0.77037 55.7482 2.04444L55.8668 3.31852L40.8742 21.2148Z" fill="#0B6EFE"/>
<path d="M15.2057 108L16.872 99.6686H18.4971L20.1634 108H18.7543L18.4251 106.077H16.9749L16.6354 108H15.2057ZM17.1291 105.11H18.2606L17.6949 101.613L17.1291 105.11ZM21.0013 108V99.6686H22.9659C23.6447 99.6686 24.1727 99.7611 24.5499 99.9463C24.9339 100.131 25.2047 100.416 25.3625 100.8C25.527 101.184 25.6093 101.671 25.6093 102.261V105.305C25.6093 105.909 25.527 106.413 25.3625 106.817C25.2047 107.215 24.9373 107.513 24.5602 107.712C24.1899 107.904 23.679 108 23.0276 108H21.0013ZM22.5236 106.941H22.9865C23.3362 106.941 23.5865 106.879 23.7373 106.755C23.8882 106.632 23.9807 106.454 24.015 106.221C24.0493 105.981 24.0665 105.689 24.0665 105.346V102.158C24.0665 101.822 24.0425 101.551 23.9945 101.345C23.9465 101.139 23.847 100.989 23.6962 100.893C23.5453 100.797 23.3019 100.749 22.9659 100.749H22.5236V106.941ZM26.7062 108L26.8502 99.6686H28.4239L29.6068 105.439L30.841 99.6686H32.3633L32.5176 108H31.3862L31.2628 102.209L30.0799 108H29.1645L27.961 102.189L27.8479 108H26.7062ZM33.7891 108V99.6686H35.2908V108H33.7891ZM36.5806 108V99.6686H37.64L39.6663 104.421V99.6686H40.9211V108H39.9131L37.8766 103.022V108H36.5806ZM42.2266 108V99.6686H43.7283V108H42.2266ZM47.1163 108.113C46.6158 108.113 46.1975 108.017 45.8615 107.825C45.5255 107.626 45.2718 107.338 45.1003 106.961C44.9289 106.584 44.8329 106.121 44.8123 105.573L46.1186 105.315C46.1323 105.638 46.1701 105.922 46.2318 106.169C46.3003 106.416 46.3998 106.608 46.5301 106.745C46.6672 106.875 46.8455 106.941 47.0649 106.941C47.3118 106.941 47.4866 106.869 47.5895 106.725C47.6923 106.574 47.7438 106.385 47.7438 106.159C47.7438 105.795 47.6615 105.497 47.4969 105.264C47.3323 105.031 47.1129 104.798 46.8386 104.565L45.7895 103.639C45.4946 103.385 45.2581 103.104 45.0798 102.795C44.9083 102.48 44.8226 102.093 44.8226 101.633C44.8226 100.975 45.0146 100.467 45.3986 100.111C45.7826 99.7543 46.3072 99.576 46.9723 99.576C47.3632 99.576 47.6889 99.6377 47.9495 99.7611C48.2101 99.8777 48.4158 100.042 48.5666 100.255C48.7243 100.467 48.8409 100.711 48.9163 100.985C48.9918 101.253 49.0398 101.537 49.0603 101.839L47.7643 102.065C47.7506 101.805 47.7198 101.571 47.6718 101.366C47.6306 101.16 47.5518 100.999 47.4352 100.882C47.3255 100.766 47.1609 100.707 46.9415 100.707C46.7152 100.707 46.5403 100.783 46.4169 100.934C46.3003 101.078 46.2421 101.259 46.2421 101.479C46.2421 101.76 46.3003 101.993 46.4169 102.178C46.5335 102.357 46.7015 102.542 46.9209 102.734L47.9598 103.649C48.3026 103.937 48.5941 104.277 48.8341 104.667C49.0809 105.051 49.2043 105.518 49.2043 106.066C49.2043 106.464 49.1152 106.817 48.9369 107.126C48.7655 107.434 48.5221 107.678 48.2066 107.856C47.8981 108.027 47.5346 108.113 47.1163 108.113ZM50.9338 108V100.79H49.6069V99.6686H53.7624V100.79H52.4561V108H50.9338ZM54.5203 108V99.6686H56.5157C57.078 99.6686 57.5511 99.7371 57.9351 99.8743C58.326 100.005 58.6209 100.231 58.8197 100.553C59.0254 100.875 59.1283 101.314 59.1283 101.87C59.1283 102.206 59.0974 102.507 59.0357 102.775C58.974 103.042 58.8677 103.272 58.7169 103.464C58.5729 103.649 58.3706 103.793 58.11 103.896L59.2723 108H57.75L56.742 104.184H56.0426V108H54.5203ZM56.0426 103.227H56.5157C56.8106 103.227 57.0437 103.186 57.2151 103.104C57.3934 103.015 57.5203 102.878 57.5957 102.693C57.6711 102.501 57.7089 102.257 57.7089 101.962C57.7089 101.544 57.63 101.232 57.4723 101.026C57.3214 100.814 57.03 100.707 56.598 100.707H56.0426V103.227ZM59.8642 108L61.5305 99.6686H63.1556L64.8219 108H63.4128L63.0836 106.077H61.6333L61.2939 108H59.8642ZM61.7876 105.11H62.9191L62.3533 101.613L61.7876 105.11ZM65.6598 108V99.6686H67.6244C68.3032 99.6686 68.8312 99.7611 69.2084 99.9463C69.5924 100.131 69.8632 100.416 70.0209 100.8C70.1855 101.184 70.2678 101.671 70.2678 102.261V105.305C70.2678 105.909 70.1855 106.413 70.0209 106.817C69.8632 107.215 69.5958 107.513 69.2186 107.712C68.8484 107.904 68.3375 108 67.6861 108H65.6598ZM67.1821 106.941H67.6449C67.9946 106.941 68.2449 106.879 68.3958 106.755C68.5466 106.632 68.6392 106.454 68.6735 106.221C68.7078 105.981 68.7249 105.689 68.7249 105.346V102.158C68.7249 101.822 68.7009 101.551 68.6529 101.345C68.6049 101.139 68.5055 100.989 68.3546 100.893C68.2038 100.797 67.9604 100.749 67.6244 100.749H67.1821V106.941ZM73.6481 108.113C73.0584 108.113 72.5887 108.003 72.239 107.784C71.8892 107.565 71.639 107.249 71.4881 106.838C71.3372 106.426 71.2618 105.939 71.2618 105.377V102.261C71.2618 101.698 71.3372 101.218 71.4881 100.821C71.639 100.416 71.8892 100.107 72.239 99.8949C72.5887 99.6823 73.0584 99.576 73.6481 99.576C74.2515 99.576 74.7247 99.6823 75.0675 99.8949C75.4172 100.107 75.6675 100.416 75.8184 100.821C75.9761 101.218 76.055 101.698 76.055 102.261V105.387C76.055 105.943 75.9761 106.426 75.8184 106.838C75.6675 107.242 75.4172 107.558 75.0675 107.784C74.7247 108.003 74.2515 108.113 73.6481 108.113ZM73.6481 106.992C73.9018 106.992 74.087 106.937 74.2035 106.827C74.327 106.718 74.4092 106.567 74.4504 106.375C74.4915 106.183 74.5121 105.974 74.5121 105.747V101.911C74.5121 101.678 74.4915 101.469 74.4504 101.283C74.4092 101.098 74.327 100.954 74.2035 100.851C74.087 100.742 73.9018 100.687 73.6481 100.687C73.4081 100.687 73.2264 100.742 73.103 100.851C72.9795 100.954 72.8972 101.098 72.8561 101.283C72.815 101.469 72.7944 101.678 72.7944 101.911V105.747C72.7944 105.974 72.8115 106.183 72.8458 106.375C72.887 106.567 72.9692 106.718 73.0927 106.827C73.2161 106.937 73.4012 106.992 73.6481 106.992ZM77.181 108V99.6686H79.1764C79.7387 99.6686 80.2119 99.7371 80.5959 99.8743C80.9867 100.005 81.2816 100.231 81.4804 100.553C81.6861 100.875 81.789 101.314 81.789 101.87C81.789 102.206 81.7581 102.507 81.6964 102.775C81.6347 103.042 81.5284 103.272 81.3776 103.464C81.2336 103.649 81.0313 103.793 80.7707 103.896L81.933 108H80.4107L79.4027 104.184H78.7033V108H77.181ZM78.7033 103.227H79.1764C79.4713 103.227 79.7044 103.186 79.8759 103.104C80.0541 103.015 80.181 102.878 80.2564 102.693C80.3319 102.501 80.3696 102.257 80.3696 101.962C80.3696 101.544 80.2907 101.232 80.133 101.026C79.9821 100.814 79.6907 100.707 79.2587 100.707H78.7033V103.227Z" fill="#0B6EFE"/>
</svg>
