<svg width="64" height="61" viewBox="0 0 64 61" fill="none" xmlns="http://www.w3.org/2000/svg">
<path d="M33.0075 50.2222L35.8223 60.1185L15.4963 59.4963C11.2297 59.4963 5.30375 56.5333 7.43708 52.6518L12.4149 48.8889L33.0075 50.2222Z" fill="#4C6787"/>
<path d="M18.4593 22.9333L27.6741 38.9037L17.6 33.8667L14.1333 50.8148C13.6 51.7037 13.837 58.1037 13.4815 59.4963C11.763 58.2815 15.8815 60.8296 8.68148 57.3629C5.0963 55.3185 4.8 53.1555 4.20741 50.8444C3.82222 49.3926 3.14074 47.2889 3.76296 42.2222C3.94074 39.8815 4.2963 37.6296 4.65185 37.0074L7.43704 27.3481L0 23.0815L18.4593 22.9333Z" fill="#0B6EFE"/>
<path d="M45.748 49.6889C45.8666 52.5926 46.9036 55.3185 48.6221 57.2741C50.3406 59.2296 52.5925 60.237 54.874 60.0889C57.1555 60.237 59.4073 59.2296 61.1258 57.2741C62.8443 55.3185 63.8518 52.5926 63.9999 49.6889C63.9999 41.6 54.874 30.0444 54.874 30.0444C54.874 30.0444 45.748 41.6 45.748 49.6889Z" fill="#0B6EFE"/>
<path d="M51.3481 31.8518L37.4518 28.7704L42.6074 25.8074L36.2074 14.7259C35.8518 14.1037 34.4592 11.7926 33.7185 11.0518L41.5111 1.83704C42.8741 1.83704 47.9407 13.6296 48.4148 14.4889L51.5555 20.5037L56.7111 17.5407L51.3481 31.8518Z" fill="#4C6787"/>
<path d="M26.8742 21.2148L16.2964 16.4148L29.2445 1.77778C31.1408 -0.503704 40.6223 -0.77037 41.7482 2.04444L41.8668 3.31852L26.8742 21.2148Z" fill="#0B6EFE"/>
</svg>
