<svg width="18" height="17" viewBox="0 0 18 17" fill="none" xmlns="http://www.w3.org/2000/svg">
<path d="M9.1552 0.0648499C4.61957 0.0648499 0.938477 3.72951 0.938477 8.28157C0.938477 12.8172 4.61957 16.4983 9.1552 16.4983C13.7073 16.4983 17.3719 12.8172 17.3719 8.28157C17.3719 3.72951 13.7073 0.0648499 9.1552 0.0648499ZM12.524 7.54205L11.916 8.13368L8.34998 11.7162C8.18564 11.8641 7.87337 12.0284 7.6433 12.0612L6.03286 12.2913C5.45768 12.3735 5.04682 11.9627 5.12899 11.3875L5.35908 9.77702C5.39194 9.54695 5.53983 9.23473 5.70417 9.0704L9.28664 5.50432L9.87828 4.89629C10.2727 4.50188 10.7164 4.23896 11.1765 4.23896C11.5709 4.23896 12.0146 4.41972 12.5076 4.89629C13.5922 5.98089 13.2471 6.81898 12.524 7.54205Z" fill="#434343"/>
</svg>
