<svg width="9" height="11" viewBox="0 0 9 11" fill="none" xmlns="http://www.w3.org/2000/svg">
<path d="M4.11577 0.591858C1.8521 0.591858 0 2.44395 0 4.70763C0 7.48577 3.6013 10.6241 3.75564 10.7784C3.85854 10.8298 4.01288 10.8813 4.11577 10.8813C4.21867 10.8813 4.37301 10.8298 4.4759 10.7784C4.63024 10.6241 8.23154 7.48577 8.23154 4.70763C8.23154 2.44395 6.37945 0.591858 4.11577 0.591858ZM4.11577 9.698C3.03538 8.66906 1.02894 6.45683 1.02894 4.70763C1.02894 3.00987 2.41802 1.6208 4.11577 1.6208C5.81353 1.6208 7.2026 3.00987 7.2026 4.70763C7.2026 6.40539 5.19616 8.66906 4.11577 9.698ZM4.11577 2.64974C2.98393 2.64974 2.05789 3.57579 2.05789 4.70763C2.05789 5.83947 2.98393 6.76551 4.11577 6.76551C5.24761 6.76551 6.17366 5.83947 6.17366 4.70763C6.17366 3.57579 5.24761 2.64974 4.11577 2.64974ZM4.11577 5.73657C3.54985 5.73657 3.08683 5.27355 3.08683 4.70763C3.08683 4.14171 3.54985 3.67869 4.11577 3.67869C4.68169 3.67869 5.14471 4.14171 5.14471 4.70763C5.14471 5.27355 4.68169 5.73657 4.11577 5.73657Z" fill="white"/>
</svg>
