<svg width="8" height="8" viewBox="0 0 8 8" fill="none" xmlns="http://www.w3.org/2000/svg">
<path d="M0.160744 0.167752C0.2637 0.0647392 0.403318 0.00686959 0.548897 0.00686959C0.694476 0.00686959 0.834095 0.0647392 0.93705 0.167752L3.84298 3.07619L6.74892 0.167752C6.79956 0.115271 6.86014 0.0734093 6.92713 0.0446112C6.99411 0.0158131 7.06615 0.000654755 7.13905 2.0747e-05C7.21195 -0.000613261 7.28424 0.0132896 7.35171 0.0409184C7.41918 0.0685471 7.48048 0.109348 7.53203 0.160941C7.58358 0.212534 7.62434 0.273886 7.65195 0.341416C7.67955 0.408946 7.69345 0.481302 7.69281 0.554263C7.69218 0.627223 7.67703 0.699327 7.64826 0.766367C7.61949 0.833407 7.57766 0.89404 7.52523 0.944728L4.61929 3.85317L7.52523 6.76161C7.62523 6.86524 7.68057 7.00404 7.67932 7.14812C7.67807 7.29219 7.62033 7.43001 7.51854 7.53189C7.41675 7.63377 7.27905 7.69156 7.1351 7.69281C6.99115 7.69406 6.85246 7.63868 6.74892 7.53858L3.84298 4.63014L0.93705 7.53858C0.833505 7.63868 0.694823 7.69406 0.550873 7.69281C0.406923 7.69156 0.269224 7.63377 0.167432 7.53189C0.06564 7.43001 0.00790063 7.29219 0.00664974 7.14812C0.00539886 7.00404 0.0607367 6.86524 0.160744 6.76161L3.06668 3.85317L0.160744 0.944728C0.0578198 0.841684 0 0.701945 0 0.55624C0 0.410536 0.0578198 0.270797 0.160744 0.167752Z" fill="#DA7676"/>
</svg>
