<svg width="18" height="19" viewBox="0 0 18 19" fill="none" xmlns="http://www.w3.org/2000/svg">
<path d="M7.20443 2.39204C5.77138 2.39204 4.39702 2.96135 3.3837 3.97472C2.37038 4.9881 1.80111 6.36253 1.80111 7.79567C1.80111 9.2288 2.37038 10.6032 3.3837 11.6166C4.39702 12.63 5.77138 13.1993 7.20443 13.1993C8.63748 13.1993 10.0118 12.63 11.0252 11.6166C12.0385 10.6032 12.6077 9.2288 12.6077 7.79567C12.6077 6.36253 12.0385 4.9881 11.0252 3.97472C10.0118 2.96135 8.63748 2.39204 7.20443 2.39204ZM4.4502e-08 7.79567C0.000164194 6.64907 0.273965 5.51907 0.798646 4.49958C1.32333 3.48009 2.08374 2.60055 3.01668 1.93407C3.94962 1.26758 5.02815 0.833391 6.16263 0.667586C7.29711 0.501782 8.45477 0.60915 9.53942 0.980768C10.6241 1.35238 11.6043 1.97752 12.3988 2.80421C13.1933 3.63091 13.779 4.63529 14.1073 5.73389C14.4355 6.83249 14.4969 7.99357 14.2862 9.12064C14.0755 10.2477 13.5989 11.3082 12.8959 12.214L17.7472 17.0656C17.9112 17.2354 18.002 17.4629 18 17.6991C17.9979 17.9352 17.9032 18.1611 17.7362 18.3281C17.5693 18.4951 17.3434 18.5898 17.1073 18.5918C16.8711 18.5939 16.6437 18.5031 16.4738 18.339L11.6225 13.4875C10.5576 14.3143 9.28202 14.8257 7.94087 14.9636C6.59971 15.1014 5.24679 14.8601 4.03596 14.2671C2.82513 13.6742 1.80497 12.7533 1.09149 11.6093C0.378015 10.4652 -0.00014978 9.14396 4.4502e-08 7.79567Z" fill="#0D0D0D"/>
</svg>
