<svg width="25" height="25" viewBox="0 0 25 25" fill="none" xmlns="http://www.w3.org/2000/svg">
<path d="M10 2.5C8.67392 2.5 7.40215 3.02678 6.46447 3.96447C5.52678 4.90215 5 6.17392 5 7.5C5 8.82608 5.52678 10.0979 6.46447 11.0355C7.40215 11.9732 8.67392 12.5 10 12.5C11.3261 12.5 12.5979 11.9732 13.5355 11.0355C14.4732 10.0979 15 8.82608 15 7.5C15 6.17392 14.4732 4.90215 13.5355 3.96447C12.5979 3.02678 11.3261 2.5 10 2.5ZM2.5 7.5C2.5 5.51088 3.29018 3.60322 4.6967 2.1967C6.10322 0.790176 8.01088 0 10 0C11.9891 0 13.8968 0.790176 15.3033 2.1967C16.7098 3.60322 17.5 5.51088 17.5 7.5C17.5 9.48912 16.7098 11.3968 15.3033 12.8033C13.8968 14.2098 11.9891 15 10 15C8.01088 15 6.10322 14.2098 4.6967 12.8033C3.29018 11.3968 2.5 9.48912 2.5 7.5ZM18.535 2.19625C18.6511 2.08003 18.789 1.98783 18.9407 1.92493C19.0924 1.86202 19.2551 1.82964 19.4194 1.82964C19.5836 1.82964 19.7463 1.86202 19.8981 1.92493C20.0498 1.98783 20.1877 2.08003 20.3037 2.19625C21.0003 2.89271 21.5529 3.71956 21.9299 4.62958C22.3069 5.53961 22.5009 6.51498 22.5009 7.5C22.5009 8.48502 22.3069 9.46039 21.9299 10.3704C21.5529 11.2804 21.0003 12.1073 20.3037 12.8038C20.1876 12.9199 20.0497 13.012 19.898 13.0749C19.7463 13.1377 19.5836 13.1701 19.4194 13.1701C19.2551 13.1701 19.0925 13.1377 18.9408 13.0749C18.789 13.012 18.6511 12.9199 18.535 12.8038C18.4189 12.6876 18.3267 12.5497 18.2639 12.398C18.201 12.2463 18.1687 12.0836 18.1687 11.9194C18.1687 11.7551 18.201 11.5925 18.2639 11.4408C18.3267 11.289 18.4189 11.1511 18.535 11.035C19.4724 10.0974 19.9989 8.82582 19.9989 7.5C19.9989 6.17418 19.4724 4.90264 18.535 3.965C18.4188 3.84891 18.3266 3.71105 18.2637 3.5593C18.2008 3.40755 18.1684 3.24489 18.1684 3.08063C18.1684 2.91636 18.2008 2.7537 18.2637 2.60195C18.3266 2.4502 18.4188 2.31234 18.535 2.19625ZM19.4125 18.4463C19.4931 18.125 19.6979 17.8488 19.982 17.6784C20.266 17.508 20.6061 17.4573 20.9275 17.5375C22.5875 17.9525 23.6387 19.0125 24.2425 20.2225C24.8275 21.3912 25 22.6975 25 23.75C25 24.0815 24.8683 24.3995 24.6339 24.6339C24.3995 24.8683 24.0815 25 23.75 25C23.4185 25 23.1005 24.8683 22.8661 24.6339C22.6317 24.3995 22.5 24.0815 22.5 23.75C22.5 22.9287 22.36 22.0463 22.0075 21.34C21.6738 20.6737 21.1612 20.1725 20.3213 19.9625C20 19.8819 19.7238 19.6771 19.5534 19.393C19.383 19.109 19.3323 18.7676 19.4125 18.4463ZM5.625 20C4.05 20 2.5 21.5163 2.5 23.75C2.5 24.0815 2.3683 24.3995 2.13388 24.6339C1.89946 24.8683 1.58152 25 1.25 25C0.918479 25 0.600537 24.8683 0.366116 24.6339C0.131696 24.3995 0 24.0815 0 23.75C0 20.46 2.36625 17.5 5.625 17.5H14.375C17.6338 17.5 20 20.46 20 23.75C20 24.0815 19.8683 24.3995 19.6339 24.6339C19.3995 24.8683 19.0815 25 18.75 25C18.4185 25 18.1005 24.8683 17.8661 24.6339C17.6317 24.3995 17.5 24.0815 17.5 23.75C17.5 21.5163 15.95 20 14.375 20H5.625Z" fill="#0D0D0D" fill-opacity="0.6"/>
</svg>
