<svg width="17" height="18" viewBox="0 0 17 18" fill="none" xmlns="http://www.w3.org/2000/svg">
<path d="M8.24232 1.83484C7.27077 1.83484 6.339 2.20535 5.65201 2.86486C4.96502 3.52438 4.57907 4.41887 4.57907 5.35156C4.57907 6.28426 4.96502 7.17875 5.65201 7.83826C6.339 8.49778 7.27077 8.86829 8.24232 8.86829C9.21388 8.86829 10.1456 8.49778 10.8326 7.83826C11.5196 7.17875 11.9056 6.28426 11.9056 5.35156C11.9056 4.41887 11.5196 3.52438 10.8326 2.86486C10.1456 2.20535 9.21388 1.83484 8.24232 1.83484ZM2.74744 5.35156C2.74744 3.95252 3.32636 2.61078 4.35685 1.62151C5.38734 0.632243 6.78499 0.0764771 8.24232 0.0764771C9.69965 0.0764771 11.0973 0.632243 12.1278 1.62151C13.1583 2.61078 13.7372 3.95252 13.7372 5.35156C13.7372 6.7506 13.1583 8.09234 12.1278 9.08161C11.0973 10.0709 9.69965 10.6266 8.24232 10.6266C6.78499 10.6266 5.38734 10.0709 4.35685 9.08161C3.32636 8.09234 2.74744 6.7506 2.74744 5.35156ZM4.57907 14.1434C3.8504 14.1434 3.15158 14.4213 2.63633 14.9159C2.12109 15.4105 1.83163 16.0814 1.83163 16.7809C1.83163 17.0141 1.73514 17.2377 1.56339 17.4026C1.39164 17.5675 1.1587 17.6601 0.915813 17.6601C0.672925 17.6601 0.439984 17.5675 0.268236 17.4026C0.0964872 17.2377 0 17.0141 0 16.7809C0 15.615 0.482436 14.4969 1.34118 13.6725C2.19992 12.8481 3.36462 12.385 4.57907 12.385H11.9056C13.12 12.385 14.2847 12.8481 15.1435 13.6725C16.0022 14.4969 16.4846 15.615 16.4846 16.7809C16.4846 17.0141 16.3882 17.2377 16.2164 17.4026C16.0447 17.5675 15.8117 17.6601 15.5688 17.6601C15.3259 17.6601 15.093 17.5675 14.9213 17.4026C14.7495 17.2377 14.653 17.0141 14.653 16.7809C14.653 16.0814 14.3636 15.4105 13.8483 14.9159C13.3331 14.4213 12.6342 14.1434 11.9056 14.1434H4.57907Z" fill="white"/>
</svg>
