<svg width="14" height="14" viewBox="0 0 14 14" fill="none" xmlns="http://www.w3.org/2000/svg">
<path d="M4.05117 4.62888C4.11959 4.56042 4.21238 4.52196 4.30913 4.52196C4.40588 4.52196 4.49867 4.56042 4.5671 4.62888L6.49837 6.56182L8.42964 4.62888C8.4633 4.594 8.50356 4.56618 8.54808 4.54704C8.59259 4.5279 8.64047 4.51783 8.68892 4.51741C8.73737 4.51699 8.78541 4.52623 8.83026 4.54459C8.8751 4.56295 8.91584 4.59007 8.95009 4.62436C8.98435 4.65864 9.01145 4.69942 9.02979 4.7443C9.04814 4.78918 9.05737 4.83727 9.05695 4.88576C9.05653 4.93425 9.04646 4.98217 9.02734 5.02672C9.00822 5.07127 8.98042 5.11157 8.94557 5.14526L7.0143 7.0782L8.94557 9.01113C9.01204 9.08001 9.04881 9.17226 9.04798 9.26801C9.04715 9.36376 9.00878 9.45535 8.94113 9.52306C8.87348 9.59077 8.78196 9.62918 8.68629 9.63001C8.59063 9.63084 8.49846 9.59403 8.42964 9.52751L6.49837 7.59457L4.5671 9.52751C4.49828 9.59403 4.40611 9.63084 4.31044 9.63001C4.21478 9.62918 4.12326 9.59077 4.05561 9.52306C3.98796 9.45535 3.94959 9.36376 3.94876 9.26801C3.94792 9.17226 3.9847 9.08001 4.05117 9.01113L5.98244 7.0782L4.05117 5.14526C3.98276 5.07678 3.94434 4.9839 3.94434 4.88707C3.94434 4.79024 3.98276 4.69737 4.05117 4.62888Z" fill="white"/>
<circle cx="6.57338" cy="7.14674" r="6.20819" stroke="white" stroke-width="0.730375"/>
</svg>
