<svg width="11" height="30" viewBox="0 0 11 30" fill="none" xmlns="http://www.w3.org/2000/svg">
<path d="M6.07452 10.488C5.92215 10.3356 5.71549 10.25 5.5 10.25C5.28451 10.25 5.07785 10.3356 4.92548 10.488C4.7731 10.6403 4.6875 10.847 4.6875 11.0625V14.1875H1.5625C1.34701 14.1875 1.14035 14.2731 0.987976 14.4255C0.835603 14.5778 0.75 14.7845 0.75 15C0.75 15.2155 0.835603 15.4222 0.987976 15.5745C1.14035 15.7269 1.34701 15.8125 1.5625 15.8125H4.6875V18.9375C4.6875 19.153 4.7731 19.3597 4.92548 19.512C5.07785 19.6644 5.28451 19.75 5.5 19.75C5.71549 19.75 5.92215 19.6644 6.07452 19.512C6.2269 19.3597 6.3125 19.153 6.3125 18.9375V15.8125H9.4375C9.65299 15.8125 9.85965 15.7269 10.012 15.5745C10.1644 15.4222 10.25 15.2155 10.25 15C10.25 14.7845 10.1644 14.5778 10.012 14.4255C9.85965 14.2731 9.65299 14.1875 9.4375 14.1875H6.3125V11.0625C6.3125 10.847 6.2269 10.6403 6.07452 10.488Z" fill="#0B6EFE" stroke="#0B6EFE" stroke-width="0.5"/>
</svg>
